<svg height="511pt" viewBox="1 -5 511.999 511" width="511pt" xmlns="http://www.w3.org/2000/svg"><path d="m312.882812 251.679688h-114.320312c-96.828125 0-175.324219 78.496093-175.324219 175.324218v63.851563c0 5.503906 4.460938 9.960937 9.960938 9.960937h445.046875c5.5 0 9.960937-4.457031 9.960937-9.960937v-63.851563c0-96.828125-78.492187-175.324218-175.324219-175.324218zm0 0" fill="#ff6930"/><path d="m29.429688 380.714844c-4.027344 14.75-6.191407 30.265625-6.191407 46.289062v63.851563c0 5.503906 4.460938 9.960937 9.960938 9.960937h116.332031zm0 0" fill="#ffcebf"/><path d="m363.101562 258.777344c21.339844 28.945312 33.957032 64.710937 33.957032 103.429687v68.890625c0 5.460938-4.425782 9.886719-9.882813 9.886719h-363.9375v49.949219c0 5.457031 4.425781 9.882812 9.886719 9.882812h445.199219c5.457031 0 9.886719-4.425781 9.886719-9.882812v-64.769532c-.003907-79.210937-52.792969-146.085937-125.109376-167.386718zm0 0" fill="#ff5426"/><g fill="#ffb19f"><path d="m33.125 500.816406h115.292969l-59.832031-59.832031h-65.347657v49.949219c0 5.457031 4.425781 9.882812 9.886719 9.882812zm0 0"/><path d="m478.246094 500.816406c5.5 0 9.960937-4.457031 9.960937-9.960937v-63.851563c.105469-15.394531-1.839843-30.523437-5.578125-44.769531l-118.578125 118.582031zm0 0"/><path d="m33.199219 500.816406h116.332031l-59.835938-59.832031h-66.457031v49.871094c0 5.503906 4.460938 9.960937 9.960938 9.960937zm0 0"/></g><path d="m270.941406 289.074219h-25.003906c-26.386719 0-47.773438-21.386719-47.773438-47.773438v-15.71875c0-13.292969 10.773438-24.070312 24.066407-24.070312h72.414062c13.292969 0 24.066407 10.777343 24.066407 24.070312v15.71875c.003906 26.386719-21.386719 47.773438-47.769532 47.773438zm0 0" fill="#ffcebf"/><path d="m294.644531 201.511719h-16.335937c13.292968 0 24.070312 10.777343 24.070312 24.070312v15.71875c0 26.386719-21.386718 47.773438-47.773437 47.773438h16.332031c26.386719 0 47.773438-21.386719 47.773438-47.773438v-15.71875c.003906-13.292969-10.773438-24.070312-24.066407-24.070312zm0 0" fill="#ffb19f"/><path d="m159.992188 122.605469v-50.675781c0-27.085938 19.726562-50.136719 46.488281-54.320313l106.410156-16.644531c23.140625-3.617188 44.046875 14.273437 44.046875 37.691406v83.949219zm0 0" fill="#945b44"/><path d="m312.890625.964844-13.257813 2.074218c14.160157 5.457032 24.480469 19.167969 24.480469 35.617188v83.949219h32.824219v-83.949219c0-23.417969-20.90625-41.308594-44.046875-37.691406zm0 0" fill="#87523e"/><path d="m370.671875 134.976562h-13.636719v-13.425781c0-42.167969-34.183594-76.355469-76.355468-76.355469h-44.488282c-42.167968 0-76.351562 34.183594-76.351562 76.355469v13.425781h-13.636719c-11.066406 0-20.035156 8.96875-20.035156 20.035157v10.03125c0 14.085937 11.421875 25.507812 25.507812 25.507812h5.40625c.992188 0 1.949219-.148437 2.859375-.402343 2.074219 40.316406 35.417969 72.367187 76.25 72.367187h44.488282c40.832031 0 74.175781-32.050781 76.253906-72.367187.910156.253906 1.867187.402343 2.859375.402343h5.402343c14.089844 0 25.507813-11.421875 25.507813-25.507812v-10.03125c0-11.066407-8.96875-20.035157-20.03125-20.035157zm0 0" fill="#ffcebf"/><path d="m370.671875 134.976562h-13.636719v-13.761718c0-41.984375-34.035156-76.019532-76.019531-76.019532h-31.855469c41.984375 0 76.019532 34.035157 76.019532 76.019532v65.28125c0 41.980468-34.035157 76.015625-76.019532 76.015625h31.855469c40.757813 0 74.019531-32.078125 75.929687-72.363281.90625.253906 1.859376.398437 2.847657.398437h5.402343c14.089844 0 25.507813-11.417969 25.507813-25.507813v-10.03125c0-11.0625-8.96875-20.03125-20.03125-20.03125zm0 0" fill="#ffb19f"/><path d="m319.464844 149.601562c0 7.796876-6.320313 14.117188-14.117188 14.117188-7.792968 0-14.113281-6.320312-14.113281-14.117188 0-7.796874 6.320313-14.117187 14.113281-14.117187 7.796875 0 14.117188 6.320313 14.117188 14.117187zm0 0" fill="#87523e"/><path d="m225.644531 149.601562c0 7.796876-6.320312 14.117188-14.117187 14.117188s-14.117188-6.320312-14.117188-14.117188c0-7.796874 6.320313-14.117187 14.117188-14.117187s14.117187 6.320313 14.117187 14.117187zm0 0" fill="#87523e"/><path d="m227.523438 192.925781c-2.898438 0-4.949219 2.855469-4 5.59375 5.003906 14.472657 18.742187 24.867188 34.914062 24.867188s29.910156-10.394531 34.914062-24.867188c.949219-2.738281-1.101562-5.59375-3.996093-5.59375zm0 0" fill="#fff"/><path d="m506.351562 458.53125h-500.703124c-3.121094 0-5.648438 2.53125-5.648438 5.648438v30.992187c0 3.117187 2.527344 5.644531 5.648438 5.644531h500.703124c3.121094 0 5.648438-2.527344 5.648438-5.644531v-30.992187c0-3.117188-2.527344-5.648438-5.648438-5.648438zm0 0" fill="#945b44"/><path d="m506.175781 458.53125h-42.710937v19.191406c0 3.214844-2.609375 5.824219-5.824219 5.824219h-457.640625v11.449219c0 3.214844 2.609375 5.820312 5.824219 5.820312h500.351562c3.214844 0 5.824219-2.605468 5.824219-5.820312v-30.640625c0-3.214844-2.609375-5.824219-5.824219-5.824219zm0 0" fill="#87523e"/><path d="m465.136719 414.554688h-14c-6.167969 0-11.167969-5-11.167969-11.167969s5-11.164063 11.167969-11.164063h14c8.101562 0 14.695312-6.59375 14.695312-14.699218 0-8.101563-6.59375-14.695313-14.695312-14.695313h-14c-6.167969 0-11.167969-5-11.167969-11.167969 0-6.167968 5-11.167968 11.167969-11.167968h14c20.417969 0 37.03125 16.613281 37.03125 37.03125 0 20.417968-16.613281 37.03125-37.03125 37.03125zm0 0" fill="#efe2dd"/><path d="m481.257812 344.191406c7.039063 6.746094 11.433594 16.226563 11.433594 26.722656 0 20.417969-16.613281 37.03125-37.03125 37.03125h-14c-.246094 0-.488281-.023437-.730468-.039062 1.734374 3.914062 5.648437 6.648438 10.207031 6.648438h14c20.417969 0 37.03125-16.613282 37.03125-37.03125 0-14.644532-8.546875-27.328126-20.910157-33.332032zm0 0" fill="#e1d3ce"/><path d="m401.148438 458.371094h-3.988282c-35.242187 0-63.8125-28.574219-63.8125-63.816406v-80.8125c0-6.652344 5.390625-12.042969 12.039063-12.042969h107.535156c6.648437 0 12.039063 5.394531 12.039063 12.042969v80.8125c0 35.242187-28.570313 63.816406-63.8125 63.816406zm0 0" fill="#ffb541"/><path d="m452.546875 301.699219h-41.742187c6.855468 0 12.414062 5.558593 12.414062 12.417969v85.621093c0 26.546875-17.648438 48.960938-41.847656 56.179688 5.65625 1.585937 11.613281 2.453125 17.777344 2.453125h.011718c36.339844 0 65.800782-29.460938 65.800782-65.804688v-78.449218c0-6.859376-5.558594-12.417969-12.414063-12.417969zm0 0" fill="#ffa812"/><path d="m453.324219 284.554688c-.261719-.007813-.488281-.175782-.578125-.425782-2.800782-8.039062-10.441406-13.8125-19.4375-13.8125-3.390625 0-6.585938.824219-9.40625 2.277344-.363282.183594-.796875 0-.914063-.390625-2.554687-8.460937-10.414062-14.625-19.710937-14.625-6.273438 0-11.890625 2.808594-15.667969 7.234375-.328125.386719-.953125.25-1.09375-.238281-2.464844-8.511719-10.28125-14.753907-19.570313-14.839844-11.328124-.109375-20.761718 9.214844-20.78125 20.546875-.007812 3.714844.972657 7.195312 2.6875 10.203125.257813.453125-.101562 1-.621093.949219-.679688-.070313-1.371094-.105469-2.066407-.105469-11.851562 0-21.359374 10.007813-20.539062 22.03125.703125 10.292969 9.136719 18.574219 19.4375 19.109375 3.597656.1875 7.007812-.550781 10.011719-1.996094 2.277343-1.097656 4.929687-1.085937 7.210937.007813 2.691406 1.292969 5.703125 2.019531 8.890625 2.019531 3.4375 0 6.679688-.847656 9.527344-2.335938 2.339844-1.226562 5.15625-1.226562 7.496094 0 2.847656 1.492188 6.085937 2.335938 9.527343 2.335938 3.382813 0 6.574219-.816406 9.390626-2.261719 2.300781-1.183593 5.058593-1.183593 7.359374 0 2.8125 1.445313 6.007813 2.261719 9.390626 2.261719 2.863281 0 5.585937-.585938 8.0625-1.644531 2.761718-1.179688 5.96875-.925781 8.390624.855469 3.753907 2.761718 8.480469 4.28125 13.570313 3.949218 10.148437-.664062 18.398437-8.84375 19.144531-18.984375.867188-11.792969-8.210937-21.667969-19.710937-22.121093zm0 0" fill="#efe2dd"/><path d="m462.832031 287.320312c.882813 2.5625 1.277344 5.355469 1.0625 8.269532-.746093 10.140625-8.996093 18.316406-19.144531 18.980468-5.089844.332032-9.816406-1.1875-13.570312-3.949218-2.421876-1.78125-5.628907-2.035156-8.390626-.855469-2.476562 1.058594-5.203124 1.644531-8.0625 1.644531-3.382812 0-6.578124-.816406-9.390624-2.261718-2.300782-1.183594-5.058594-1.183594-7.359376 0-2.816406 1.445312-6.007812 2.261718-9.390624 2.261718-3.441407 0-6.679688-.84375-9.527344-2.335937-2.339844-1.226563-5.15625-1.226563-7.496094 0-2.847656 1.492187-6.089844 2.335937-9.527344 2.335937-3.183594 0-6.199218-.726562-8.890625-2.019531-2.28125-1.09375-4.933593-1.105469-7.210937-.007813-3.003906 1.449219-6.414063 2.1875-10.011719 2-3.335937-.175781-6.476563-1.167968-9.222656-2.773437 2.679687 7.734375 9.886719 13.421875 18.363281 13.863281 3.597656.1875 7.003906-.550781 10.007812-2 2.28125-1.097656 4.933594-1.085937 7.210938.011719 2.691406 1.292969 5.707031 2.015625 8.894531 2.015625 3.4375 0 6.679688-.84375 9.527344-2.335938 2.335937-1.222656 5.15625-1.222656 7.492187 0 2.851563 1.492188 6.089844 2.335938 9.53125 2.335938 3.382813 0 6.574219-.816406 9.386719-2.261719 2.300781-1.179687 5.0625-1.179687 7.363281 0 2.8125 1.445313 6.003907 2.261719 9.386719 2.261719 2.863281 0 5.589844-.585938 8.066407-1.640625 2.761718-1.179687 5.96875-.929687 8.390624.851563 3.753907 2.765624 8.480469 4.285156 13.570313 3.953124 10.144531-.664062 18.398437-8.84375 19.144531-18.984374.605469-8.25-3.65625-15.554688-10.203125-19.359376zm0 0" fill="#e1d3ce"/><path d="m399.15625 418.15625c-4.273438 0-7.734375-3.460938-7.734375-7.734375v-59.632813c0-4.273437 3.460937-7.734374 7.734375-7.734374 4.269531 0 7.734375 3.460937 7.734375 7.734374v59.632813c0 4.273437-3.464844 7.734375-7.734375 7.734375zm0 0" fill="#ffcf86"/><path d="m437.601562 418.15625c-4.273437 0-7.734374-3.460938-7.734374-7.734375v-59.632813c0-4.273437 3.460937-7.734374 7.734374-7.734374 4.269532 0 7.734376 3.460937 7.734376 7.734374v59.632813c0 4.273437-3.464844 7.734375-7.734376 7.734375zm0 0" fill="#ffcf86"/><path d="m361.066406 418.15625c-4.269531 0-7.734375-3.460938-7.734375-7.734375v-59.632813c0-4.273437 3.464844-7.734374 7.734375-7.734374 4.273438 0 7.734375 3.460937 7.734375 7.734374v59.632813c0 4.273437-3.460937 7.734375-7.734375 7.734375zm0 0" fill="#ffcf86"/></svg>