<svg id="Layer_1" enable-background="new 0 0 512 512" height="512" viewBox="0 0 512 512" width="512" xmlns="http://www.w3.org/2000/svg"><g><g><path clip-rule="evenodd" d="m241.034 160.305 50.17 186.968c3.345 12.482 16.298 19.953 28.77 16.585l138.009-36.907c12.5-3.34 19.983-16.274 16.638-28.756l-15.703-58.473-40.873-152.382c-5.074 7.161-11.224 12.312-21.712 15.114-10.487 2.802-23.838.538-33.021-6.142-1.814.792 2.239-.113-5.726 2.009-7.936 2.123-28.089-.566-37.585-10.047l-62.783 16.784c-5.385 1.387-13.634 1.896-9.949 15.595z" fill="#ffe07d" fill-rule="evenodd"/></g><g><path clip-rule="evenodd" d="m424.111 336.008 33.872-9.057c12.5-3.34 19.983-16.274 16.638-28.756l-15.703-58.473-34.467-128.409c-5.045 7.161-12.557 12.651-21.684 15.085-3.43.906-6.831 1.33-10.204 1.33l48.186 179.552c3.345 12.454-4.138 25.388-16.638 28.728z" fill="#ffc77d" fill-rule="evenodd"/></g><g><path d="m372.035 262.96c-3.414 0-6.501-2.347-7.3-5.815l-.085-.368c-.932-4.036 1.585-8.063 5.621-8.994 4.033-.93 8.063 1.585 8.994 5.621l.085.368c.932 4.036-1.585 8.063-5.621 8.994-.568.131-1.135.194-1.694.194z" fill="#ffc77d"/></g><g><path d="m356.758 305.924c-3.414 0-6.501-2.347-7.3-5.815l-.085-.368c-.932-4.036 1.585-8.063 5.621-8.994 4.035-.933 8.063 1.584 8.994 5.621l.085.368c.932 4.036-1.585 8.063-5.621 8.994-.568.13-1.136.194-1.694.194z" fill="#ffc77d"/></g><g><path d="m340.799 227.893c-3.414 0-6.501-2.347-7.3-5.815l-.085-.368c-.932-4.036 1.585-8.063 5.621-8.994 4.034-.935 8.063 1.585 8.994 5.621l.085.368c.932 4.036-1.585 8.063-5.621 8.994-.568.131-1.135.194-1.694.194z" fill="#ffc77d"/></g><g><path d="m374.817 191.213c-3.206 0-6.173-2.072-7.165-5.296l-.113-.368c-1.219-3.959 1.003-8.156 4.962-9.374 3.964-1.223 8.155 1.004 9.374 4.962l.113.368c1.219 3.959-1.003 8.156-4.962 9.374-.735.226-1.478.334-2.209.334z" fill="#ffc77d"/></g><g><path clip-rule="evenodd" d="m270.966 262.11-50.17 186.968c-3.345 12.481-16.298 19.953-28.798 16.614l-138.009-36.936c-12.472-3.34-19.954-16.274-16.61-28.756l15.703-58.473 40.873-152.354c5.074 7.132 11.224 12.283 21.712 15.085 10.487 2.802 23.838.538 33.021-6.142 1.814.792-2.239-.113 5.726 2.01 7.936 2.123 28.089-.566 37.585-10.047l62.783 16.812c5.357 1.359 13.634 1.868 9.949 15.567z" fill="#ffe07d" fill-rule="evenodd"/></g><g><path d="m155.889 354.83c-.738 0-1.488-.109-2.23-.341-3.955-1.23-6.163-5.434-4.932-9.389l.114-.367c1.23-3.954 5.433-6.165 9.389-4.932 3.955 1.23 6.163 5.434 4.932 9.389l-.114.367c-1 3.213-3.962 5.273-7.159 5.273z" fill="#ffc77d"/></g><g><path d="m171.201 397.794c-.561 0-1.129-.063-1.697-.195-4.036-.934-6.549-4.962-5.616-8.997l.085-.367c.934-4.035 4.971-6.549 8.997-5.616 4.036.934 6.549 4.962 5.616 8.997l-.085.367c-.803 3.466-3.888 5.811-7.3 5.811z" fill="#ffc77d"/></g><g><path d="m187.158 319.764c-.559 0-1.126-.063-1.693-.194-4.036-.931-6.552-4.958-5.621-8.994l.085-.368c.931-4.036 4.958-6.552 8.994-5.621s6.552 4.958 5.621 8.994l-.085.368c-.801 3.468-3.887 5.815-7.301 5.815z" fill="#ffc77d"/></g><g><path d="m153.145 283.055c-.561 0-1.129-.063-1.697-.195-4.036-.934-6.549-4.962-5.616-8.997l.085-.367c.934-4.036 4.97-6.548 8.997-5.616 4.036.934 6.549 4.962 5.616 8.997l-.085.367c-.802 3.466-3.888 5.811-7.3 5.811z" fill="#ffc77d"/></g><g><path d="m161.875 89.916c-2.637 0-5.194-1.393-6.564-3.861l-13.917-25.076c-2.01-3.622-.704-8.187 2.918-10.197 3.623-2.009 8.187-.704 10.197 2.918l13.917 25.076c2.01 3.622.704 8.187-2.918 10.197-1.154.639-2.402.943-3.633.943z" fill="#d5cef7"/></g><g><path d="m126.467 109.473c-.032 0-.063 0-.096-.001l-20.352-.255c-4.141-.052-7.458-3.451-7.405-7.592.051-4.11 3.399-7.406 7.497-7.406.032 0 .063 0 .096.001l20.352.255c4.141.052 7.458 3.451 7.405 7.592-.051 4.11-3.399 7.406-7.497 7.406z" fill="#d5cef7"/></g><g><path d="m197.264 70.359c-1.33 0-2.677-.353-3.895-1.097-3.537-2.155-4.657-6.769-2.502-10.306l10.572-17.35c2.153-3.538 6.769-4.659 10.306-2.502 3.537 2.155 4.657 6.769 2.502 10.306l-10.572 17.35c-1.413 2.319-3.882 3.599-6.411 3.599z" fill="#d5cef7"/></g><g><path clip-rule="evenodd" d="m246.816 230.411-56.491 210.516c-3.345 12.453-16.241 19.897-28.685 16.614v.028l30.357 8.123c12.5 3.34 25.453-4.132 28.798-16.614l17.63-65.691 11.139-41.463 14.966-55.841c-7.908-3.623-13.492-12.566-10.119-25.133l3.883-14.519c3.685-13.727-4.563-14.208-9.949-15.595z" fill="#ffc77d" fill-rule="evenodd"/></g><path d="m510.719 191.729-17.376-64.729c-5.791-21.557-29.676-33.955-53.256-27.63l-17.573 4.699c-.001 0-.002.001-.003.001s-.002 0-.004.001c-4.001 1.073-6.373 5.187-5.299 9.187l50.168 186.879c1.099 4.099.521 8.4-1.625 12.109-2.148 3.713-5.594 6.362-9.707 7.461l-138.027 36.912c-4.091 1.104-8.387.535-12.1-1.602-3.718-2.142-6.371-5.581-7.471-9.689l-16.015-59.606c-1.074-4.001-5.186-6.366-9.189-5.297-4 1.075-6.372 5.188-5.297 9.189l16.014 59.601c2.138 7.978 7.277 14.655 14.472 18.798 4.784 2.756 10.079 4.163 15.431 4.163 2.689 0 5.394-.355 8.054-1.074l.402-.108.004.014 137.595-36.811c7.98-2.133 14.662-7.26 18.816-14.44 4.155-7.181 5.266-15.529 3.129-23.506l-13.751-51.225 10.322-2.759c11.235-3.013 20.794-9.835 26.917-19.212 6.298-9.642 8.204-20.769 5.369-31.326zm-17.927 23.126c-4.1 6.28-10.58 10.871-18.236 12.924l-10.332 2.762-30.583-113.922 10.327-2.761c15.589-4.181 31.245 3.459 34.891 17.031l17.375 64.729c1.713 6.382.491 13.214-3.442 19.237z" fill="#c3ddff"/><path d="m266.474 278.838c-4.001-1.079-8.114 1.302-9.186 5.301l-32.275 120.218c-.018.067-.027.133-.043.2l-11.418 42.579c-2.283 8.516-11.081 13.589-19.615 11.31l-138.008-36.934c-4.099-1.098-7.538-3.746-9.682-7.458-2.145-3.712-2.722-8.013-1.625-12.109l50.169-186.883c1.074-4-1.298-8.114-5.299-9.187-.001 0-.003 0-.004-.001-.001 0-.002-.001-.003-.001l-17.57-4.698c-23.578-6.314-47.47 6.083-53.258 27.631l-17.376 64.728c-2.836 10.558-.93 21.684 5.368 31.328 6.123 9.376 15.682 16.199 26.922 19.213l10.316 2.758-13.752 51.227c-2.137 7.971-1.026 16.317 3.125 23.5 4.148 7.178 10.821 12.308 18.79 14.442l138.013 36.936c2.675.715 5.361 1.056 8.007 1.056 13.697-.001 26.264-9.146 29.969-22.972l14.626-54.539c.012-.045.018-.09.029-.135l29.081-108.321c1.073-4.004-1.3-8.117-5.301-9.189zm-229.023 50.748c-7.663-2.055-14.142-6.645-18.242-12.925-3.933-6.023-5.155-12.855-3.441-19.237l17.375-64.727c3.644-13.567 19.297-21.207 34.897-17.031l10.321 2.759-30.585 113.921z" fill="#c3ddff"/><g><path clip-rule="evenodd" d="m212.718 142.644 7.143 26.605c4.195 15.68 17.715 19.529 27.607 15.029 7.908-3.623 13.492-12.595 10.119-25.133l-3.912-14.548c-3.656-13.699 4.592-14.208 9.977-15.566l62.755-16.812c9.524 9.481 23.696 13.783 37.613 10.047 1.984-.509 3.883-1.189 5.726-2.009 9.184 6.679 21.173 9.312 33.021 6.142 9.127-2.434 16.638-7.925 21.684-15.085 6.463-9.113 8.957-20.916 5.839-32.548-5.556-20.746-26.927-33.058-47.704-27.482-1.984.538-3.883 1.217-5.697 2.009-9.184-6.679-21.202-9.312-33.021-6.142-10.743 2.887-19.218 9.934-24.121 18.963-20.776-27.85-81.377-12.029-83.871 29.661-13.946 1.358-29.309 23.972-23.158 46.869z" fill="#efecff" fill-rule="evenodd"/></g><g><path clip-rule="evenodd" d="m381.056 51.736c8.673 13.614 14.456 31.133 15.93 50.52.255 3.227.368 6.51.368 9.849 0 5.264-.312 10.415-.907 15.453 2.098-.226 4.195-.594 6.321-1.16 9.127-2.434 16.638-7.925 21.684-15.085 6.463-9.113 8.957-20.916 5.839-32.548-5.556-20.746-26.927-33.058-47.704-27.482-.511.141-1.021.283-1.531.453z" fill="#d5cef7" fill-rule="evenodd"/></g><g><path clip-rule="evenodd" d="m299.282 244.449-7.143 26.605c-4.195 15.68-17.715 19.529-27.608 15.029-7.908-3.623-13.492-12.566-10.119-25.104l3.883-14.548c3.685-13.727-4.563-14.208-9.949-15.595l-62.755-16.812c-9.524 9.481-23.696 13.783-37.613 10.047-1.984-.509-3.912-1.189-5.726-2.009-9.184 6.679-21.202 9.312-33.021 6.142-9.127-2.434-16.638-7.925-21.684-15.085-6.463-9.113-8.957-20.916-5.839-32.52 5.556-20.746 26.927-33.058 47.675-27.51 2.012.538 3.912 1.217 5.726 2.009 9.184-6.679 21.202-9.283 33.021-6.142 10.714 2.887 19.189 9.963 24.121 18.991 20.776-27.878 81.377-12.057 83.871 29.633 13.948 1.386 29.311 23.972 23.16 46.869z" fill="#efecff" fill-rule="evenodd"/></g><g><path clip-rule="evenodd" d="m276.125 197.58c-.822-13.812-7.199-23.265-17.545-31.869-5.074-3.906-10.913-6.878-17.007-8.859-8.447-2.745-17.403-3.594-25.652-2.293-4.45.708-8.673 2.009-12.5 3.991 4.79.368 9.665 1.33 14.342 2.887 12.075 4.019 22.987 11.944 29.11 23.095.255.453.482.906.737 1.387.227.481.454.934.68 1.415 1.786 3.962 2.976 8.264 3.458 12.878.255 2.604-.085 1.585 2.494 2.264 13.265 3.453 26.615 24.821 20.805 46.445l-5.13 19.076-2.012 7.529-3.373 10.557c3.316 1.5 7.029 2.066 10.658 1.585 7.228-.991 14.144-6.198 16.95-16.614l7.143-26.605c6.15-22.897-9.213-45.483-23.158-46.869z" fill="#d5cef7" fill-rule="evenodd"/></g></g></svg>